<?xml version="1.0" encoding="UTF-8" standalone="no"?>
<!DOCTYPE svg PUBLIC "-//W3C//DTD SVG 1.1//EN" "http://www.w3.org/Graphics/SVG/1.1/DTD/svg11.dtd">
<svg width="100%" height="100%" viewBox="0 0 613 613" version="1.1" xmlns="http://www.w3.org/2000/svg" xmlns:xlink="http://www.w3.org/1999/xlink" xml:space="preserve" xmlns:serif="http://www.serif.com/" style="fill-rule:evenodd;clip-rule:evenodd;stroke-linejoin:round;stroke-miterlimit:2;">
    <g transform="matrix(1,0,0,1,-205.5,-258.934)">
        <g id="Favicon">
            <g transform="matrix(1,0,0,1,-34.5,-22.0662)">
                <circle cx="546.5" cy="587.5" r="306.5" style="fill:url(#_Linear1);"/>
            </g>
            <g transform="matrix(0.940992,0,0,1.0982,41.0333,-14.7754)">
                <path d="M500.5,330L465.75,330C446.571,330 431,343.342 431,359.775L431,556.736L362.151,497.743C352.564,489.528 336.996,489.528 327.408,497.743L292.665,527.513C283.077,535.728 283.077,549.068 292.665,557.283L483.142,720.493C487.932,724.597 494.216,726.651 500.5,726.654C506.784,726.651 513.068,724.597 517.858,720.493L708.335,557.283C717.923,549.068 717.923,535.728 708.335,527.513L673.592,497.743C664.004,489.528 648.436,489.528 638.849,497.743L570,556.736L570,359.776C570,343.342 554.429,330 535.25,330L500.5,330" style="fill:rgb(254,253,253);"/>
            </g>
        </g>
    </g>
    <defs>
        <linearGradient id="_Linear1" x1="0" y1="0" x2="1" y2="0" gradientUnits="userSpaceOnUse" gradientTransform="matrix(613,613,-613,613,240,281)"><stop offset="0" style="stop-color:rgb(79,70,229);stop-opacity:1"/><stop offset="1" style="stop-color:rgb(168,85,247);stop-opacity:1"/></linearGradient>
    </defs>
</svg>
