<?xml version="1.0" encoding="UTF-8" standalone="no"?>
<!DOCTYPE svg PUBLIC "-//W3C//DTD SVG 1.1//EN" "http://www.w3.org/Graphics/SVG/1.1/DTD/svg11.dtd">
<svg width="100%" height="100%" viewBox="0 0 1024 1024" version="1.1" xmlns="http://www.w3.org/2000/svg" xmlns:xlink="http://www.w3.org/1999/xlink" xml:space="preserve" xmlns:serif="http://www.serif.com/" style="fill-rule:evenodd;clip-rule:evenodd;stroke-linejoin:round;">
    <g id="Icon" transform="matrix(0.889782,0,0,0.889782,-190.928,80.9007)">
        <g id="Background" transform="matrix(1.12387,0,0,1.12387,214.578,-90.9219)">
            <path d="M1024,225C1024,165.326 1000.3,108.097 958.099,65.901C915.903,23.705 858.674,-0 799,0L225,0C165.326,-0 108.097,23.705 65.901,65.901C23.705,108.097 -0,165.326 0,225L0,799C-0,858.674 23.705,915.903 65.901,958.099C108.097,1000.3 165.326,1024 225,1024L799,1024C858.674,1024 915.903,1000.3 958.099,958.099C1000.3,915.903 1024,858.674 1024,799L1024,225Z" style="fill:rgb(1,142,252);"/>
        </g>
        <g transform="matrix(1.05755,0,0,1.23424,260.694,-107.528)">
            <path d="M500.5,330L465.75,330C446.571,330 431,343.342 431,359.775L431,556.736L362.151,497.743C352.564,489.528 336.996,489.528 327.408,497.743L292.665,527.513C283.077,535.728 283.077,549.068 292.665,557.283L483.142,720.493C487.932,724.597 494.216,726.651 500.5,726.654C506.784,726.651 513.068,724.597 517.858,720.493L708.335,557.283C717.923,549.068 717.923,535.728 708.335,527.513L673.592,497.743C664.004,489.528 648.436,489.528 638.849,497.743L570,556.736L570,359.776C570,343.342 554.429,330 535.25,330L500.5,330" style="fill:rgb(254,253,253);"/>
        </g>
        <g transform="matrix(1.41406,0,0,1.23722,66,-109.364)">
            <path d="M256,173.419C256,148.335 273.792,128 295.739,128L580.262,128C590.464,128 600.276,132.485 607.665,140.525C638.665,174.261 723.723,266.821 755.663,301.578C763.541,310.151 768,322.04 768,334.473C768,409.142 768,678.436 768,786.581C768,811.665 750.208,832 728.261,832L295.739,832C273.792,832 256,811.665 256,786.581L256,173.419ZM596.155,128L596.155,259.077C596.155,284.161 613.946,304.496 635.894,304.496L758.344,304.496" style="fill:none;fill-rule:nonzero;stroke:rgb(254,253,253);stroke-width:30.89px;"/>
        </g>
    </g>
</svg>
