<?xml version="1.0" encoding="UTF-8" standalone="no"?>
<!DOCTYPE svg PUBLIC "-//W3C//DTD SVG 1.1//EN" "http://www.w3.org/Graphics/SVG/1.1/DTD/svg11.dtd">
<svg width="100%" height="100%" viewBox="0 0 1024 1024" version="1.1" xmlns="http://www.w3.org/2000/svg" xmlns:xlink="http://www.w3.org/1999/xlink" xml:space="preserve" xmlns:serif="http://www.serif.com/" style="fill-rule:evenodd;clip-rule:evenodd;stroke-linejoin:round;">
    <g id="Icon" transform="matrix(0.889782,0,0,0.889782,-190.927669,80.900689)">
        <g id="Rounded" transform="matrix(1.123871,0,0,1.123871,214.578065,-90.921935)">
            <path d="M1024,225C1024,165.326 1000.295,108.097 958.099,65.901C915.903,23.705 858.674,-0 799,0L225,0C165.326,-0 108.097,23.705 65.901,65.901C23.705,108.097 -0,165.326 0,225L0,799C-0,858.674 23.705,915.903 65.901,958.099C108.097,1000.295 165.326,1024 225,1024L799,1024C858.674,1024 915.903,1000.295 958.099,958.099C1000.295,915.903 1024,858.674 1024,799L1024,225Z" style="fill:url(#_Linear1);"/>
        </g>
        <g transform="matrix(1.33065,0,0,1.189324,108.707097,-86.375367)">
            <path d="M256,175.248C256,162.717 260.449,150.699 268.369,141.839C276.289,132.978 287.03,128 298.23,128L579.005,128C590.002,128 600.565,132.8 608.449,141.378C639.927,175.634 723.203,266.255 755.214,301.09C763.388,309.985 768,322.201 768,334.959L768,784.752C768,810.846 749.093,832 725.77,832C629.47,832 394.53,832 298.23,832C274.907,832 256,810.846 256,784.752L256,175.248ZM596.155,128L596.155,257.248C596.155,283.342 615.062,304.496 638.385,304.496C686.441,304.496 758.344,304.496 758.344,304.496" style="fill:none;fill-rule:nonzero;"/>
            <clipPath id="_clip2">
                <path d="M256,175.248C256,162.717 260.449,150.699 268.369,141.839C276.289,132.978 287.03,128 298.23,128L579.005,128C590.002,128 600.565,132.8 608.449,141.378C639.927,175.634 723.203,266.255 755.214,301.09C763.388,309.985 768,322.201 768,334.959L768,784.752C768,810.846 749.093,832 725.77,832C629.47,832 394.53,832 298.23,832C274.907,832 256,810.846 256,784.752L256,175.248ZM596.155,128L596.155,257.248C596.155,283.342 615.062,304.496 638.385,304.496C686.441,304.496 758.344,304.496 758.344,304.496" clip-rule="nonzero"/>
            </clipPath>
            <g clip-path="url(#_clip2)">
                <g transform="matrix(0.747883,0,0,0.997592,137.684328,1.483984)">
                    <path d="M500.5,330L465.75,330C446.571,330 431,343.342 431,359.775L431,556.736L362.151,497.743C352.564,489.528 336.996,489.528 327.408,497.743L292.665,527.513C283.077,535.728 283.077,549.068 292.665,557.283L483.142,720.493C487.932,724.597 494.216,726.651 500.5,726.654C506.784,726.651 513.068,724.597 517.858,720.493L708.335,557.283C717.923,549.068 717.923,535.728 708.335,527.513L673.592,497.743C664.004,489.528 648.436,489.528 638.849,497.743L570,556.736L570,359.776C570,343.342 554.429,330 535.25,330L500.5,330" style="fill:rgb(254,253,253);"/>
                </g>
            </g>
            <path d="M256,175.248C256,162.717 260.449,150.699 268.369,141.839C276.289,132.978 287.03,128 298.23,128L579.005,128C590.002,128 600.565,132.8 608.449,141.378C639.927,175.634 723.203,266.255 755.214,301.09C763.388,309.985 768,322.201 768,334.959L768,784.752C768,810.846 749.093,832 725.77,832C629.47,832 394.53,832 298.23,832C274.907,832 256,810.846 256,784.752L256,175.248ZM596.155,128L596.155,257.248C596.155,283.342 615.062,304.496 638.385,304.496C686.441,304.496 758.344,304.496 758.344,304.496" style="fill:none;fill-rule:nonzero;stroke:rgb(254,253,253);stroke-width:30.89px;"/>
        </g>
    </g>
    <defs>
        <linearGradient id="_Linear1" x1="0" y1="0" x2="1" y2="0" gradientUnits="userSpaceOnUse" gradientTransform="matrix(1024,1024,-1024,1024,-0,-0)"><stop offset="0" style="stop-color:rgb(79,70,229);stop-opacity:1"/><stop offset="1" style="stop-color:rgb(168,85,247);stop-opacity:1"/></linearGradient>
    </defs>
</svg>
